<svg width="56" height="56" viewBox="0 0 56 56" fill="none" xmlns="http://www.w3.org/2000/svg">
<rect width="56" height="56" rx="28" fill="#0F20B5"/>
<path d="M30.43 34.82C30.24 34.82 30.05 34.75 29.9 34.6C29.61 34.31 29.61 33.83 29.9 33.54L35.44 28L29.9 22.46C29.61 22.17 29.61 21.69 29.9 21.4C30.19 21.11 30.67 21.11 30.96 21.4L37.03 27.47C37.32 27.76 37.32 28.24 37.03 28.53L30.96 34.6C30.81 34.75 30.62 34.82 30.43 34.82Z" fill="white"/>
<path d="M36.33 28.75H19.5C19.09 28.75 18.75 28.41 18.75 28C18.75 27.59 19.09 27.25 19.5 27.25H36.33C36.74 27.25 37.08 27.59 37.08 28C37.08 28.41 36.74 28.75 36.33 28.75Z" fill="white"/>
</svg>
